# xmcd
# Copyright (C) 1995-1998 Ti Kan
#
# Track frame offsets:
#       150
#       93156
#       109503
#       125474
#       142977
#       153877
#
# Disc length: 2240 seconds
#
# Revision: 0
# Processed by: cddbd v1.5PL3 Copyright (c) Steve Scherf et al.
# Submitted via: CD-Transfer v1.0
#
DISCID=3e08be06
DTITLE=Oldfield Mike - Crises
DYEAR=1983
DGENRE=
TTITLE0=Crises
TTITLE1=Moonlight Shadow
TTITLE2=In High Places
TTITLE3=Foreign Affair
TTITLE4=Taurus  3
TTITLE5=Shadow On The Wall
EXTD=
EXTT0=
EXTT1=
EXTT2=
EXTT3=
EXTT4=
EXTT5=
PLAYORDER=
